<svg width="231" height="48" viewBox="0 0 231 48" fill="none" xmlns="http://www.w3.org/2000/svg">
<g clip-path="url(#clip0_81_32)">
<path fill-rule="evenodd" clip-rule="evenodd" d="M83.2715 0.503856C82.5359 0.774655 80.6418 1.43623 79.095 1.9504C77.5481 2.48857 75.654 3.15015 74.9184 3.42094C74.1828 3.71574 73.0278 4.10651 72.3368 4.32932C71.6734 4.52471 70.8862 4.79551 70.6181 4.89149C69.7347 5.23427 65.974 6.55742 64.8431 6.9002C64.0318 7.171 63.7122 7.39038 63.664 7.78115C63.5643 8.34332 64.9187 9.05631 75.41 13.9547C77.3762 14.8631 80.1297 16.1862 81.5528 16.8718C83.0756 17.6053 84.454 18.1229 84.9456 18.1229C85.4372 18.1229 86.8122 17.6568 88.0909 17.0946C89.3697 16.5564 90.5006 16.1622 90.5968 16.2616C90.8925 16.5804 88.9262 18.0989 87.4756 18.6371C86.3928 19.0279 85.7293 19.1273 84.3784 19.0553C83.4434 18.9833 82.4362 18.8119 82.1681 18.6645C81.6525 18.3697 77.3762 16.409 77.2525 16.409C77.2043 16.409 75.6781 15.6995 73.8115 14.8151C69.635 12.8304 69.3875 12.7584 69.1675 13.5159C68.9475 14.3729 68.9956 19.2507 69.2397 19.8883C69.4115 20.3305 70.1231 20.7452 72.1409 21.6022C73.5915 22.2398 76.3415 23.4155 78.2356 24.2485C80.1262 25.0814 82.4637 26.0858 83.3953 26.504L85.114 27.2136L89.3903 25.0575C91.7243 23.8817 93.9862 22.706 94.354 22.4592L95.0897 22.041L95.0175 18.2909L94.9453 14.5648L93.5943 13.9033C91.4562 12.8235 88.9262 11.7472 88.6065 11.7472C88.4347 11.7472 87.8709 12.042 87.3278 12.3607C86.5922 12.8269 86.0009 12.9743 84.9181 12.9743C83.0275 12.9743 81.845 12.3128 81.0853 10.7702C80.3222 9.27569 80.25 8.19592 80.8137 6.92419C81.7247 4.86749 82.78 4.1545 84.9181 4.1545C86.7847 4.1545 88.0153 4.84007 89.0465 6.482C89.9575 7.87713 90.0537 7.95254 93.4706 9.29968C94.5534 9.71788 95.8803 10.28 96.42 10.4994C96.9597 10.7428 97.6472 11.0136 97.9428 11.113C98.9981 11.4558 99.0737 11.7986 99.0978 16.4056C99.1218 20.8892 99.2456 21.5508 100.081 21.232C100.425 21.0846 100.473 20.399 100.473 16.3062V11.5278L101.184 11.0376C101.552 10.7668 102.855 10.1292 104.034 9.61505C106.22 8.65868 106.959 8.07252 106.468 7.58234C106.224 7.33896 104.158 6.57798 96.0487 3.7603C93.5428 2.87935 90.3218 1.72759 88.8747 1.186C85.5093 -0.0651654 84.9422 -0.13715 83.2715 0.500428V0.503856Z" fill="black"/>
<path fill-rule="evenodd" clip-rule="evenodd" d="M171.441 0.161147C171.049 0.260554 170.997 0.627333 170.997 3.6644C170.997 6.18728 170.925 7.09566 170.677 7.31504C170.433 7.51043 162.372 7.60984 141.73 7.63383L113.127 7.70582L113.003 15.3499C112.931 19.9569 112.783 23.0934 112.635 23.2408C112.487 23.3882 112.044 23.3642 111.408 23.1174C109.885 22.6032 106.001 22.6752 104.698 23.2648C103.124 23.9743 102.24 24.6599 101.601 25.6917C100.494 27.457 100.422 28.0672 100.446 35.4679C100.47 39.3413 100.57 42.7692 100.642 43.1119C100.886 44.1403 101.921 45.7342 102.756 46.3718C104.526 47.695 105.114 47.8904 107.843 47.8904C110.177 47.8904 110.521 47.8424 111.528 47.2528C112.611 46.6392 112.659 46.6392 113.075 47.0814C113.443 47.4722 113.911 47.5236 117.131 47.5236C122.171 47.5236 121.851 47.695 121.851 45.0007C121.851 42.8686 121.827 42.7452 121.188 42.183L120.5 41.5934L120.428 28.2626L120.38 14.9317L120.995 14.6883C122.002 14.2975 170.069 14.3695 170.585 14.7363C170.952 15.0311 170.976 16.3542 171.076 28.7767C171.148 38.7003 171.248 42.7692 171.468 43.4787C171.911 44.8739 172.943 46.2964 174.17 47.1534C175.177 47.8389 175.349 47.8869 177.587 47.8869C178.914 47.8629 180.289 47.7395 180.66 47.5681L181.347 47.2733L181.275 44.8978C181.203 42.5703 181.176 42.4949 180.588 42.351C179.237 42.0322 178.893 41.8128 178.646 41.0998C178.474 40.5856 178.374 35.9786 178.374 27.6455C178.374 15.343 178.398 14.9283 178.841 14.6815C179.161 14.5341 183.461 14.4381 191.155 14.4381H202.976L202.904 11.0548L202.832 7.69896L190.666 7.57556C183.984 7.50357 178.477 7.42816 178.453 7.38017C178.405 7.35618 178.381 5.88563 178.381 4.1203C178.381 2.35496 178.257 0.713029 178.137 0.445658C177.893 0.0274615 177.597 -0.0205282 174.868 0.00346666C173.221 0.0274615 171.674 0.0754512 171.451 0.150864L171.441 0.161147ZM112.783 28.4374C112.907 28.6328 113.003 31.7212 113.003 35.3239C113.003 42.944 113.103 42.6252 110.693 42.6252C109.318 42.6252 109.095 42.5532 108.431 41.8642L107.72 41.1307V35.5193C107.72 30.2267 107.744 29.8839 108.235 29.2223C108.507 28.8556 109.022 28.3894 109.342 28.218C110.105 27.8272 112.487 27.9746 112.783 28.4374Z" fill="#481548"/>
<path fill-rule="evenodd" clip-rule="evenodd" d="M35.4255 0.72325C31.1974 1.82701 28.8393 3.85972 27.5364 7.56178C27.1927 8.54215 27.1446 10.6228 27.0449 23.1447C26.9968 32.6535 27.0689 38.1175 27.2408 39.1219C28.0521 43.8009 31.1252 46.694 36.3571 47.6983C37.9314 47.9931 39.3546 48.0411 42.3521 47.9417C45.7174 47.8423 46.5802 47.7223 48.3711 47.1567C50.7293 46.4232 54.1461 44.7058 54.4418 44.1197C54.6618 43.6535 54.8611 25.4482 54.6377 24.3205L54.4899 23.5355L48.6427 23.4635C45.4252 23.4155 42.6236 23.4155 42.4002 23.4635C42.0324 23.5355 41.9808 23.9537 41.9808 26.552C41.9808 28.5367 42.0805 29.6405 42.2764 29.8359C42.4483 30.0073 43.2355 30.1307 44.0949 30.1307C45.2499 30.1307 45.6418 30.2301 45.7655 30.5214C46.0096 31.183 45.9133 33.3631 45.5696 34.8097C44.9543 37.4559 43.703 38.4603 41.0493 38.4603C39.2308 38.4603 38.148 37.7987 37.3883 36.2562C36.8486 35.1764 36.8246 35.0325 36.8246 24.3719C36.8246 18.4417 36.9243 13.1971 37.0205 12.731C37.8077 9.5465 40.238 8.07596 42.8952 9.1763C44.4696 9.83787 45.4493 11.5038 45.7449 14.0541C45.8171 14.5683 46.0164 15.1065 46.2124 15.2059C46.3843 15.3293 48.2027 15.4252 50.2686 15.4252C53.4139 15.4252 54.0533 15.3533 54.3971 15.007C54.7649 14.6643 54.7889 13.9787 54.7168 9.12488C54.6446 2.89993 54.8646 3.5615 52.3071 2.48516C50.6605 1.7756 48.3264 1.06261 46.0886 0.599848C43.6308 0.0616776 37.708 0.133662 35.4221 0.72325H35.4255Z" fill="#481548"/>
<path fill-rule="evenodd" clip-rule="evenodd" d="M84.0075 6.41008C82.7047 6.92425 82.361 9.03237 83.3922 10.1361C84.0556 10.8697 85.3103 10.9691 86.5856 10.4309C87.225 10.1601 87.4691 10.1876 88.4281 10.5783C89.0435 10.8217 89.755 11.1405 90.0025 11.2879C90.25 11.4353 91.625 12.0489 93.0481 12.635C94.4747 13.2246 95.8497 13.9102 96.0938 14.1296C96.4856 14.4963 96.5372 15.0105 96.4616 20.5979L96.4135 26.6754L95.5781 27.5324C94.6191 28.5128 94.4953 29.4691 95.1588 30.4975C95.75 31.4059 96.6816 31.6972 97.8125 31.3544C99.6069 30.8403 100.05 29.0029 98.7475 27.5084C98.0119 26.6994 98.0119 26.6515 97.9844 23.6864C97.9844 22.0444 97.9844 19.2987 98.0085 17.6088C98.0325 15.9189 97.9603 14.253 97.8847 13.8828C97.6888 13.1732 96.41 12.2408 95.5747 12.2408C95.3031 12.2408 95.0591 12.1414 95.0591 12.0214C95.0591 11.9015 94.7635 11.7027 94.3956 11.5553C94.0038 11.4319 92.3572 10.6743 90.6866 9.91333C88.4006 8.83356 87.641 8.34338 87.5413 7.92861C87.2216 6.65345 85.355 5.84448 84.0041 6.41008H84.0075ZM85.6781 8.3708C85.63 8.73758 85.4066 8.96039 85.0628 9.00838C84.5953 9.08036 84.4991 8.98438 84.4991 8.47021C84.4991 7.95603 84.6228 7.83263 85.1385 7.83263C85.6541 7.83263 85.7538 7.93204 85.6781 8.3708ZM97.6956 29.0509C97.7953 29.2943 97.6716 29.5891 97.4 29.7845C96.8363 30.2027 96.5406 30.0039 96.5406 29.2463C96.5406 28.8281 96.6644 28.6567 97.0322 28.6567C97.3038 28.6567 97.596 28.8281 97.6956 29.0475V29.0509Z" fill="#CA202B"/>
<path fill-rule="evenodd" clip-rule="evenodd" d="M157.484 22.802C154.583 23.0213 152.324 23.6349 150.086 24.8347L149.004 25.3968V30.494L152.421 30.566C156.205 30.638 156.253 30.614 156.253 29.1195C156.253 28.0157 156.869 27.4295 158.171 27.2582C160.062 27.0148 161.169 28.1905 161.169 30.518C161.169 31.4984 160.653 31.9132 158.835 32.4308C153.232 34.0247 151.29 34.8817 149.595 36.5236C148.048 38.0181 147.605 39.1219 147.605 41.4014C147.581 43.5095 147.948 44.5619 149.127 45.909C150.554 47.527 151.585 47.8937 154.535 47.8697C156.968 47.8697 157.188 47.8217 158.663 47.0608C159.498 46.6186 160.261 46.1524 160.334 46.0324C160.629 45.5422 161.341 45.837 161.685 46.5946L162.028 47.4035L165.541 47.4755C167.68 47.4995 169.226 47.4275 169.522 47.2801C169.966 47.0608 170.014 46.766 170.014 44.9526C170.014 43.0159 169.966 42.8445 169.35 42.2584L168.663 41.6448L168.539 34.5869C168.415 28.3859 168.343 27.457 167.948 26.696C167.26 25.3968 166.325 24.5159 164.974 23.8783C162.764 22.826 160.746 22.5552 157.481 22.7985L157.484 22.802ZM161.169 38.5597C161.145 40.4965 161.045 40.7158 159.45 41.8196C158.419 42.5532 157.828 42.728 156.625 42.6526C156.033 42.6286 155.274 41.4768 155.274 40.5959C155.274 39.9343 156.233 38.7585 157.336 38.073C158.419 37.3874 160.506 36.5784 160.873 36.7018C161.069 36.7738 161.169 37.3634 161.169 38.5632V38.5597Z" fill="#481548"/>
<path fill-rule="evenodd" clip-rule="evenodd" d="M190.044 22.9494C186.85 23.3676 183.925 25.2769 182.87 27.6284C182.354 28.8041 182.106 38.3849 182.526 41.1306C183.313 46.1558 186.654 48.2365 193.485 47.9417C195.746 47.8698 196.582 47.6984 198.696 46.9854C200.071 46.4952 201.57 45.9056 202.013 45.6382L202.824 45.172V39.5607H195.966L195.575 40.613C195.011 42.1076 194.396 42.5977 192.945 42.7931C191.914 42.9165 191.57 42.8411 190.955 42.4264C189.923 41.6654 189.652 40.8084 189.727 38.4329L189.8 36.3762L196.31 36.2528L202.821 36.1294L202.893 32.8216C202.993 28.8041 202.721 27.3336 201.614 26.0584C200.631 24.9067 198.05 23.5595 195.987 23.1173C194.561 22.7986 191.687 22.7266 190.04 22.946L190.044 22.9494ZM194.124 27.5804C195.059 28.0466 195.575 29.2223 195.575 30.8403V32.04L192.773 32.064C190.119 32.112 189.947 32.088 189.8 31.5978C189.58 30.9362 189.872 29.1949 190.339 28.3894C191.003 27.2616 192.797 26.8948 194.124 27.5804Z" fill="#481548"/>
<path fill-rule="evenodd" clip-rule="evenodd" d="M56.803 23.2682C56.2874 23.4875 56.2393 23.6589 56.2393 25.5237C56.2393 27.5324 56.2393 27.5564 57.0264 28.218L57.8377 28.8795V41.3774L57.0505 42.1864C56.2633 42.9954 56.2393 43.0948 56.2393 45.1275V47.2116L57.1743 47.383C58.3533 47.5784 64.7918 47.5784 65.7989 47.383L66.5621 47.2116V45.1275C66.5621 43.1668 66.5139 42.9714 65.8986 42.3098C65.2111 41.6242 65.2111 41.5762 65.1355 37.9222C65.0118 32.9244 65.1355 32.1874 66.3386 31.0596C67.1499 30.2747 67.4696 30.1513 68.5764 30.0793L69.8793 30.0073L69.9514 26.8468C69.9996 24.7387 69.9274 23.587 69.7314 23.3676C69.1677 22.682 67.5693 22.9494 65.8986 24.0052C65.4071 24.3239 65.3074 24.2999 64.7436 23.6864C64.1283 23.0248 64.1043 23.0248 60.7389 23.0488C58.8724 23.0488 57.1021 23.1482 56.8064 23.2682H56.803Z" fill="#481548"/>
<path fill-rule="evenodd" clip-rule="evenodd" d="M122.834 23.1961C122.219 23.4395 122.099 23.8097 122.099 25.6231C122.099 27.241 122.147 27.3884 122.834 27.9985C123.226 28.3653 123.621 28.9069 123.694 29.1983C123.742 29.5171 123.841 32.7255 123.866 36.3796C123.938 42.7005 123.965 43.0433 124.505 44.2465C125.268 45.9364 126.371 46.9408 128.142 47.5544C129.345 47.9965 129.96 48.0445 131.926 47.9451C134.016 47.8457 134.432 47.7497 135.931 46.9408L137.578 46.0324L137.798 46.622C137.921 46.9408 138.289 47.2836 138.609 47.3555C139.544 47.6263 145.439 47.5509 145.955 47.2836C146.347 47.0642 146.422 46.7454 146.422 44.9081C146.422 42.8994 146.374 42.728 145.783 42.2618C145.364 41.943 145.071 41.3808 144.924 40.6678C144.824 40.0543 144.728 35.9134 144.704 31.4538C144.704 24.0771 144.656 23.3195 144.284 23.1722C143.669 22.9288 137.011 23.0488 136.543 23.2956C136.175 23.4909 136.1 23.8851 136.1 25.5991C136.1 27.5118 136.148 27.7072 136.691 28.05C137.011 28.2693 137.354 28.6396 137.454 28.8589C137.65 29.3491 137.626 41.014 137.43 41.5282C137.21 42.0424 135.316 42.8754 134.309 42.8754C133.081 42.8754 132.27 42.5086 131.755 41.7236C131.363 41.134 131.287 40.2291 131.163 33.442C131.016 25.2083 130.796 23.419 129.861 23.1756C129.197 23.0042 123.322 23.0282 122.831 23.1996L122.834 23.1961Z" fill="#481548"/>
<path fill-rule="evenodd" clip-rule="evenodd" d="M74.1039 23.9297C73.8083 24.2005 73.908 34.4909 74.2036 34.6623C74.3514 34.7617 74.6952 34.6143 74.9908 34.3435C75.7023 33.6819 78.1842 32.4582 79.5867 32.088C80.8895 31.7452 81.3055 31.4504 81.3055 30.8642C81.3055 30.6448 81.5014 30.2746 81.7489 30.0792C82.2405 29.6885 85.6573 28.8281 86.0011 29.0509C86.3448 29.2463 86.2727 31.255 85.8773 31.5738C85.7055 31.7212 84.1827 32.2354 82.512 32.7255C79.267 33.6339 75.9739 35.1524 74.8464 36.2048C74.4545 36.5716 73.8392 37.3565 73.4955 37.9701C72.9042 38.9505 72.832 39.3173 72.832 41.278C72.832 43.2387 72.9042 43.6055 73.5195 44.6338C74.8464 46.8894 76.737 47.8423 79.8102 47.8423C81.7764 47.8183 81.9964 47.7703 84.1345 46.6905C85.3617 46.077 86.4445 45.5628 86.5442 45.5628C86.6439 45.5628 86.7161 45.7822 86.7161 46.029C86.7161 47.2801 86.7402 47.2801 91.0405 47.2801H95.0692V44.8532C95.0692 42.7451 94.997 42.3543 94.6258 42.0835C93.6667 41.398 93.5945 40.8838 93.5945 34.1447C93.5945 27.9951 93.5705 27.5289 93.0789 26.5246C92.2436 24.8107 92.1198 24.8107 88.5827 26.5966C86.8364 27.4535 85.2655 28.1665 85.0936 28.1665C84.8977 28.1665 82.9073 27.3575 80.6455 26.3532C74.3067 23.5595 74.403 23.6075 74.1073 23.9263L74.1039 23.9297ZM86.2177 38.4123C86.2177 40.1022 86.1455 40.397 85.678 40.8392C84.4989 41.8676 83.1239 42.6286 82.3608 42.6286C80.642 42.6286 80.0027 40.2256 81.3536 38.7825C81.9689 38.097 85.0902 36.503 85.7777 36.503C86.1695 36.503 86.2211 36.7464 86.2211 38.4157L86.2177 38.4123Z" fill="#481548"/>
</g>
<defs>
<clipPath id="clip0_81_32">
<rect width="176" height="48" fill="white" transform="translate(27)"/>
</clipPath>
</defs>
</svg>
