<svg width="231" height="48" viewBox="0 0 231 48" fill="none" xmlns="http://www.w3.org/2000/svg">
<g clip-path="url(#clip0_78_24)">
<path d="M94.9376 13.1378L96.4457 13.7939V13.9501L88.4375 10.3832L88.49 10.3259L94.4174 12.9087L94.9376 13.1378Z" fill="#465FFF"/>
<path d="M107.124 7.81085C107.134 8.03996 107.013 8.24825 106.803 8.34198L100.912 11.0914V21.1048H99.625V11.4455L89.909 7.46717C89.4571 5.37387 87.576 3.80651 85.3217 3.80651C82.7258 3.80651 80.6292 5.87897 80.6292 8.4305C80.6292 10.982 82.7258 13.0545 85.3217 13.0545C86.6827 13.0545 87.907 12.4869 88.7583 11.5652L93.992 13.846L94.5122 14.0751L95.395 14.4604V21.9901L91.3961 24L85.4163 27.015L77.5605 23.6147L69.4156 20.0894V12.6535L82.4946 18.6158C82.7206 18.7147 87.9648 20.8965 92.2999 15.1113L86.4094 17.8607C86.0994 18.0065 85.7578 18.0795 85.4163 18.0795C85.0747 18.0795 84.7384 18.0013 84.4231 17.8555L64.0296 8.24825C63.8141 8.14931 63.6932 7.94103 63.7038 7.71191C63.7195 7.48279 63.8614 7.29013 64.0874 7.21202L84.6438 0.130221C85.143 -0.0416167 85.6843 -0.0416167 86.1835 0.130221L106.745 7.31616C106.966 7.39427 107.113 7.58694 107.124 7.81605V7.81085Z" fill="#465FFF"/>
<path d="M98.4423 26.7963V12.9816L87.9749 8.32116C87.9276 6.96208 86.8031 5.87378 85.4159 5.87378C84.0286 5.87378 82.8516 7.00374 82.8516 8.39927C82.8516 9.7948 84.0023 10.9248 85.4159 10.9248C86.2461 10.9248 86.9818 10.5342 87.4494 9.9354L88.4426 10.378L96.4508 13.9449L96.7293 14.0699V26.7078C95.6731 27.0202 94.9059 27.9836 94.9059 29.1239C94.9059 30.5195 96.0567 31.6494 97.4702 31.6494C98.8837 31.6494 100.035 30.5195 100.035 29.1239C100.035 28.0669 99.3777 27.166 98.4423 26.7859V26.7963ZM85.4106 9.23763C84.9429 9.23763 84.5593 8.86271 84.5593 8.39927C84.5593 7.93583 84.9429 7.56091 85.4106 7.56091C85.8783 7.56091 86.2619 7.93583 86.2619 8.39927C86.2619 8.86271 85.8783 9.23763 85.4106 9.23763ZM97.4649 29.9675C96.9973 29.9675 96.6137 29.5926 96.6137 29.1291C96.6137 28.6657 96.9973 28.2908 97.4649 28.2908C97.9326 28.2908 98.3162 28.6657 98.3162 29.1291C98.3162 29.5926 97.9326 29.9675 97.4649 29.9675Z" fill="#EC1C24"/>
<path d="M113.477 11.9297V20.0529H113.492V11.9297H113.477Z" fill="white"/>
<path d="M120.87 39.3821V26.9473L120.839 39.4446C120.839 39.4446 120.839 39.4602 120.855 39.4758C120.855 39.507 120.87 39.5851 120.886 39.6685C120.87 39.5747 120.87 39.4758 120.87 39.3821Z" fill="white"/>
<path d="M37.9193 10.5862C38.6497 9.3261 39.7585 8.70124 41.2823 8.70124C42.0916 8.70124 42.7642 8.86266 43.3579 9.19592C43.9307 9.52918 44.4089 9.99262 44.803 10.5862C45.1971 11.1747 45.4756 11.862 45.6753 12.6639C45.8539 13.4606 45.9538 14.3094 45.9538 15.2363H54.8343V3.41593C52.7376 2.312 50.5411 1.48405 48.2448 0.895639C45.9328 0.307225 43.5786 0 41.1667 0C36.4743 0 32.9326 0.958125 30.5627 2.85875C28.1876 4.75938 27 7.71187 27 11.7162V36.2525C27 40.21 28.1665 43.1469 30.5207 45.0944C32.8538 47.0419 36.3587 48 40.9881 48C42.4121 48 43.6995 47.9531 44.866 47.823C46.0326 47.7136 47.1413 47.5053 48.2291 47.1825C49.2958 46.8804 50.3677 46.4639 51.4345 45.9536C52.5012 45.4589 53.6309 44.8184 54.8395 44.0373V23.271H42.018V30.0091H45.9538V32.42C45.9538 34.4456 45.5965 35.9297 44.8871 36.9191C44.1567 37.8928 42.9691 38.3719 41.2876 38.3719C39.7637 38.3719 38.6182 37.9084 37.9035 36.9972C37.1889 36.0703 36.8158 34.6644 36.8158 32.7689V15.6112C36.8158 13.5179 37.1942 11.8256 37.9246 10.581L37.9193 10.5862Z" fill="white"/>
<path d="M68.7964 22.8284C67.4039 22.8284 66.1901 23.547 65.1496 24.9842L64.9867 23.0523H56.3848V27.7909C57.0469 27.7909 57.4883 28.046 57.7457 28.5407C57.9875 29.051 58.1031 29.8633 58.1031 31.0141V39.3769C58.1031 39.9185 58.0873 40.3663 58.0242 40.7152C57.9769 41.064 57.8929 41.3556 57.7668 41.5795C57.6354 41.8035 57.4777 41.9805 57.2465 42.1055C57.0206 42.2357 56.7263 42.3606 56.39 42.4544V47.3387H66.9047V42.4544C66.5789 42.3762 66.3057 42.2617 66.1113 42.1523C65.9011 42.043 65.7539 41.8816 65.6436 41.6577C65.549 41.4494 65.4649 41.163 65.4334 40.7933C65.4019 40.4444 65.3861 39.9653 65.3861 39.3717V34.102C65.3861 32.6492 65.7277 31.5973 66.4055 30.9569C67.0676 30.3007 67.9609 29.9831 69.0644 29.9831C69.2746 29.9831 69.4848 29.9987 69.6792 30.0612C69.8736 30.1081 70.0838 30.1549 70.294 30.207V23.0419C69.7896 22.8961 69.2904 22.818 68.8017 22.818L68.7964 22.8284Z" fill="white"/>
<path d="M146.366 42.1419C146.156 42.0638 145.993 41.9024 145.861 41.6785C145.73 41.4545 145.651 41.1525 145.588 40.7828C145.525 40.4131 145.493 39.9392 145.493 39.3769V23.0471H136.666V27.7856C137.249 27.7856 137.669 28.0095 137.911 28.4574C138.153 28.8896 138.268 29.5092 138.268 30.2747V41.4337C137.653 41.8659 137.039 42.1836 136.455 42.4075C135.872 42.6314 135.352 42.7407 134.9 42.7407C134.269 42.7407 133.749 42.647 133.345 42.4543C132.94 42.2773 132.614 42.0065 132.388 41.642C132.162 41.2723 131.999 40.8141 131.905 40.2673C131.81 39.7101 131.758 39.0696 131.758 38.3354V28.6292C131.758 27.9262 131.742 27.3222 131.695 26.8275C131.647 26.3172 131.595 25.8694 131.516 25.4528C131.453 25.0362 131.369 24.6405 131.274 24.2708C131.195 23.8854 131.096 23.4897 131.001 23.0419H122.709V27.7804C123.308 27.7804 123.744 28.02 124.023 28.5146C124.296 28.9937 124.427 29.5821 124.427 30.2695V40.9026C124.427 42.0065 124.59 42.9959 124.911 43.8707C125.237 44.7507 125.72 45.4849 126.351 46.089C126.981 46.7138 127.775 47.1721 128.715 47.5105C129.656 47.8282 130.722 47.9896 131.957 47.9896C133.192 47.9896 134.29 47.7969 135.326 47.4168C137.627 46.4743 137.885 45.9327 138.499 45.2454V47.3387H147.117V42.2773C146.828 42.2773 146.581 42.2304 146.371 42.1315L146.366 42.1419Z" fill="white"/>
<path d="M169.676 41.8243C169.435 41.5223 169.303 40.9807 169.303 40.1788V29.2281C169.303 28.0148 169.046 26.9786 168.526 26.1142C167.99 25.2706 167.296 24.5676 166.418 24.0365C165.562 23.4949 164.574 23.1096 163.439 22.8701C162.32 22.6149 161.153 22.5004 159.971 22.5004C159.193 22.5004 158.352 22.5472 157.428 22.6618C156.519 22.792 155.599 22.9638 154.658 23.1877C153.718 23.4272 152.814 23.7293 151.921 24.0834C151.048 24.4531 150.25 24.8644 149.556 25.3279V30.4205H156.876C156.876 29.7175 156.907 29.1448 156.97 28.7126C157.033 28.2804 157.149 27.9471 157.343 27.7076C157.522 27.468 157.78 27.3066 158.105 27.2441C158.431 27.166 158.867 27.1139 159.403 27.1139C159.939 27.1139 160.344 27.1764 160.664 27.3066C160.99 27.416 161.248 27.6555 161.426 27.994C161.621 28.3272 161.736 28.775 161.815 29.353C161.878 29.9258 161.91 30.6601 161.91 31.5401C161.069 31.8421 160.128 32.1285 159.125 32.4045C158.121 32.6752 157.102 32.9616 156.082 33.3001C155.063 33.6177 154.075 34.0031 153.119 34.4353C152.147 34.8675 151.306 35.3778 150.575 35.9974C149.829 36.6223 149.246 37.3565 148.794 38.1845C148.342 39.028 148.116 40.0226 148.116 41.1682C148.116 42.2044 148.279 43.1313 148.6 43.9801C148.925 44.8236 149.393 45.5266 150.008 46.1202C150.623 46.7087 151.353 47.1565 152.21 47.4793C153.082 47.8126 154.038 47.974 155.11 47.974C155.788 47.974 156.424 47.9271 156.991 47.8126C157.559 47.7189 158.126 47.5574 158.694 47.3179C158.71 47.3023 158.741 47.2867 158.757 47.2867C159.293 47.0471 159.845 46.7607 160.391 46.391C160.975 46.0213 161.621 45.5631 162.32 45.0163V47.3491H170.775V42.2877C170.291 42.2877 169.934 42.1263 169.671 41.8243H169.676ZM161.92 40.2726C161.61 40.5589 161.29 40.8453 160.932 41.1369C160.591 41.4233 160.234 41.6941 159.897 41.918C159.54 42.1419 159.219 42.3346 158.894 42.4752C158.568 42.621 158.295 42.6991 158.069 42.6991C157.485 42.6991 157.002 42.4908 156.613 42.0951C156.224 41.7097 156.03 41.1994 156.03 40.5954C156.03 39.9914 156.24 39.4915 156.66 39.0489C157.097 38.601 157.617 38.2053 158.216 37.8512C158.831 37.5023 159.477 37.1795 160.16 36.9243C160.838 36.6535 161.442 36.414 161.926 36.1901V40.2778L161.92 40.2726Z" fill="white"/>
<path d="M181 42.1576C180.627 42.0795 180.302 41.9337 180.028 41.7254C179.771 41.5327 179.561 41.2619 179.414 40.9287C179.282 40.5798 179.203 40.1476 179.203 39.606V23.0523L179.188 14.4344L179.156 7.37865L179.14 0.00524902H171.805L171.82 7.37865L171.852 14.4344L171.868 23.0523V39.6998C171.868 40.9443 171.999 42.0795 172.241 43.1157C172.483 44.1363 172.887 45.0007 173.439 45.7349C173.991 46.4535 174.7 47.0107 175.578 47.4116C176.45 47.8126 177.522 48 178.767 48C179.429 48 180.028 47.9219 180.564 47.7293C181.1 47.5522 181.668 47.3804 182.251 47.2033V42.2877C181.799 42.2877 181.379 42.2409 181.006 42.1576H181Z" fill="white"/>
<path d="M204 36.1589V31.0662C204 30.332 203.968 29.7071 203.921 29.1656C203.873 28.6396 203.774 28.1606 203.663 27.7596C203.548 27.3431 203.406 26.9942 203.227 26.6765C203.048 26.3745 202.823 26.0725 202.565 25.7809H202.612C202.16 25.3331 201.624 24.9165 200.994 24.5364C200.379 24.151 199.664 23.8334 198.887 23.547C198.125 23.2606 197.284 23.0367 196.391 22.8753C195.497 22.7138 194.578 22.6357 193.622 22.6357C191.598 22.6357 189.817 22.9221 188.277 23.4793C186.738 24.0521 185.556 24.8228 184.731 25.7757H184.762C184.452 26.1246 184.195 26.4787 184 26.8275C183.806 27.1764 183.643 27.5618 183.532 27.9627C183.401 28.3793 183.322 28.8427 183.291 29.353C183.243 29.8477 183.212 30.4205 183.212 31.061V39.33C183.212 40.9286 183.454 42.2825 183.942 43.3864C184.41 44.4904 185.109 45.3652 185.997 46.0525C186.89 46.7243 187.973 47.219 189.255 47.521C190.516 47.823 191.977 48 193.579 48C195.361 48 197.111 47.7293 198.845 47.2033C200.579 46.6618 202.297 45.9276 204.01 45.0163V39.2832H196.622C196.622 40.5589 196.364 41.4546 195.844 41.9493C195.324 42.4439 194.562 42.6991 193.574 42.6991C192.586 42.6991 191.793 42.4283 191.288 41.8712C190.784 41.3296 190.526 40.434 190.526 39.1894V36.1589H204.005H204ZM191.204 28.2387C191.672 27.5045 192.45 27.1191 193.569 27.1191C194.184 27.1191 194.704 27.2129 195.093 27.3899C195.482 27.567 195.792 27.8377 196.018 28.2179C196.244 28.6032 196.407 29.0979 196.485 29.7019C196.564 30.306 196.617 31.0402 196.617 31.9046H190.526C190.526 30.1966 190.752 28.9677 191.204 28.2335V28.2387Z" fill="white"/>
<path d="M94.4546 41.6784C94.2129 41.3764 94.0816 40.814 94.0816 40.0329V29.0822C94.0816 27.8533 93.8241 26.8327 93.3039 25.9683C93.0149 25.5048 92.6733 25.0882 92.3002 24.7237L85.4481 28.1709L76.1998 24.1666L74.3396 23.3699L74.1609 35.0861C76.1209 33.3 78.68 32.1024 81.6594 31.5764C81.6594 31.2067 81.6752 30.5246 81.6909 29.8997L86.5043 28.6552C86.5358 28.8322 86.5673 29.0041 86.5988 29.2124C86.6619 29.7851 86.6934 30.5037 86.6934 31.3994C85.8527 31.7014 84.9121 31.9878 83.9084 32.2638C82.9048 32.5189 81.8854 32.8209 80.8607 33.1594C79.8413 33.4771 78.8534 33.8624 77.897 34.2946C76.9249 34.7112 76.0841 35.2371 75.3537 35.8567C74.6076 36.4816 74.0243 37.2002 73.5724 38.0438C73.1205 38.8717 72.8945 39.8819 72.8945 41.0119C72.8945 42.0481 73.0574 42.9906 73.399 43.8394C73.7248 44.6673 74.1767 45.3859 74.7915 45.9796C75.4063 46.568 76.1367 47.0158 77.009 47.3386C77.8655 47.6563 78.8219 47.8177 79.8938 47.8177C80.5717 47.8177 81.2075 47.7708 81.775 47.6719C82.3583 47.5782 82.9258 47.4011 83.4775 47.1616C84.0293 46.9377 84.6126 46.62 85.1801 46.2503C85.7633 45.8806 86.4097 45.4224 87.1086 44.86V47.2085H95.5634V42.1471C95.08 42.1471 94.7226 41.9856 94.4599 41.6836L94.4546 41.6784ZM86.6934 40.1162C86.3834 40.4183 86.0629 40.7047 85.7055 40.9963C85.364 41.2827 85.0067 41.5378 84.6704 41.7773C84.313 42.0012 83.9925 42.1939 83.6667 42.3345C83.3567 42.4803 83.0834 42.5428 82.8417 42.5428C82.2584 42.5428 81.775 42.3501 81.3862 41.9544C80.9973 41.5534 80.8029 41.0587 80.8029 40.4391C80.8029 39.8663 81.0131 39.356 81.4335 38.9082C81.8696 38.4447 82.3898 38.0438 83.0046 37.6949C83.6037 37.346 84.25 37.0388 84.9331 36.768C85.611 36.5129 86.2153 36.2577 86.6987 36.0494V40.1214L86.6934 40.1162Z" fill="white"/>
<path d="M204 7.37866V14.4344H113.372L113.383 7.37866H204Z" fill="white"/>
<path d="M121.763 42.1419C121.553 42.0638 121.375 41.9024 121.259 41.6785C121.128 41.4546 121.049 41.1526 120.965 40.7829C120.933 40.4808 120.886 40.1111 120.886 39.6633C120.87 39.5852 120.854 39.5019 120.854 39.4706C120.839 39.455 120.839 39.4394 120.839 39.4394L120.87 26.9421L120.902 14.4292H113.372V23.6407H113.356C112.788 23.3543 112.237 23.1304 111.669 22.9534C111.117 22.792 110.566 22.667 110.019 22.6045C109.483 22.542 108.968 22.5108 108.464 22.5108C107.313 22.5264 106.262 22.6878 105.321 23.0211C104.381 23.3543 103.556 23.8178 102.878 24.4583C102.2 25.0831 101.664 25.8486 101.291 26.7755C100.918 27.7024 100.739 28.7542 100.739 29.9519V40.4548C100.739 41.6993 100.918 42.7876 101.291 43.7249C101.664 44.6518 102.2 45.4485 102.894 46.0734C103.572 46.7139 104.402 47.1929 105.358 47.5262C106.33 47.8438 107.381 48.0052 108.548 48.0052C109.567 48.0052 110.623 47.8126 111.69 47.4012C111.69 47.4012 113.182 46.6201 113.377 45.662V47.3543H122.494V42.2929C122.205 42.2929 121.958 42.2461 121.763 42.1471V42.1419ZM113.372 42.1576C113.256 42.2044 113.146 42.2357 113.046 42.2877C112.447 42.496 111.864 42.6054 111.264 42.6054C110.198 42.6054 109.404 42.3502 108.853 41.8243C108.317 41.2827 108.059 40.486 108.059 39.3821V31.462C108.059 30.2955 108.332 29.3843 108.9 28.749C109.452 28.1085 110.292 27.7909 111.412 27.7909C111.701 27.7909 111.979 27.8065 112.252 27.8377C112.51 27.869 112.788 27.9315 113.062 28.0148C113.156 28.046 113.256 28.0929 113.372 28.1241V42.1576Z" fill="white"/>
</g>
<defs>
<clipPath id="clip0_78_24">
<rect width="177" height="48" fill="white" transform="translate(27)"/>
</clipPath>
</defs>
</svg>
